<svg width="1600" height="1000" viewBox="0 0 1600 1000" fill="none" xmlns="http://www.w3.org/2000/svg">
  <rect width="1600" height="1000" rx="48" fill="#091322"/>
  <rect x="56" y="56" width="1488" height="888" rx="40" fill="url(#bg)"/>
  <circle cx="1290" cy="190" r="170" fill="#7C3AED" fill-opacity="0.22"/>
  <circle cx="300" cy="760" r="220" fill="#F97316" fill-opacity="0.16"/>
  <rect x="136" y="154" width="456" height="692" rx="32" fill="#0E1E35" stroke="#5EEAD4" stroke-opacity="0.18"/>
  <rect x="174" y="210" width="380" height="210" rx="24" fill="#152B4A"/>
  <rect x="210" y="250" width="118" height="14" rx="7" fill="#F8FAFC" fill-opacity="0.85"/>
  <rect x="210" y="288" width="240" height="12" rx="6" fill="#94A3B8"/>
  <rect x="210" y="324" width="202" height="12" rx="6" fill="#94A3B8"/>
  <rect x="210" y="368" width="300" height="18" rx="9" fill="url(#accentA)"/>
  <rect x="174" y="452" width="380" height="110" rx="24" fill="#12253F"/>
  <rect x="206" y="488" width="122" height="50" rx="18" fill="#111827" stroke="#F97316" stroke-opacity="0.45"/>
  <rect x="350" y="488" width="170" height="16" rx="8" fill="#E2E8F0" fill-opacity="0.9"/>
  <rect x="350" y="520" width="130" height="12" rx="6" fill="#94A3B8"/>
  <rect x="174" y="590" width="380" height="216" rx="24" fill="#12253F"/>
  <path d="M228 730C282 654 348 692 404 634C458 580 522 602 522 602" stroke="#F8FAFC" stroke-width="14" stroke-linecap="round"/>
  <circle cx="522" cy="602" r="18" fill="#F97316"/>
  <rect x="676" y="176" width="784" height="318" rx="36" fill="#0F1F36" stroke="#F8FAFC" stroke-opacity="0.08"/>
  <rect x="728" y="238" width="258" height="20" rx="10" fill="#F8FAFC" fill-opacity="0.9"/>
  <rect x="728" y="286" width="342" height="16" rx="8" fill="#94A3B8"/>
  <rect x="728" y="324" width="302" height="16" rx="8" fill="#94A3B8"/>
  <rect x="728" y="388" width="214" height="54" rx="18" fill="url(#accentA)"/>
  <rect x="1088" y="232" width="310" height="198" rx="28" fill="#152B4A"/>
  <rect x="1128" y="274" width="230" height="22" rx="11" fill="#E2E8F0" fill-opacity="0.9"/>
  <rect x="1128" y="322" width="178" height="14" rx="7" fill="#94A3B8"/>
  <rect x="1128" y="354" width="132" height="14" rx="7" fill="#94A3B8"/>
  <circle cx="1242" cy="642" r="214" fill="#0F1F36"/>
  <circle cx="1242" cy="642" r="154" stroke="#E879F9" stroke-opacity="0.34" stroke-width="2"/>
  <circle cx="1242" cy="642" r="108" stroke="#22D3EE" stroke-opacity="0.34" stroke-width="2"/>
  <circle cx="1242" cy="642" r="54" fill="url(#accentB)"/>
  <rect x="680" y="566" width="390" height="228" rx="32" fill="#0F1F36" stroke="#F8FAFC" stroke-opacity="0.08"/>
  <rect x="726" y="620" width="152" height="18" rx="9" fill="#F8FAFC" fill-opacity="0.88"/>
  <rect x="726" y="660" width="270" height="12" rx="6" fill="#94A3B8"/>
  <rect x="726" y="694" width="224" height="12" rx="6" fill="#94A3B8"/>
  <rect x="726" y="738" width="198" height="16" rx="8" fill="#5EEAD4" fill-opacity="0.9"/>
  <text x="136" y="112" fill="#E2E8F0" font-family="Arial, sans-serif" font-size="42" font-weight="700">2D Animation Design System</text>
  <text x="136" y="914" fill="#94A3B8" font-family="Arial, sans-serif" font-size="28">Reusable motion scenes, faster campaigns, clearer product stories</text>
  <defs>
    <linearGradient id="bg" x1="96" y1="96" x2="1504" y2="904" gradientUnits="userSpaceOnUse">
      <stop stop-color="#0A1627"/>
      <stop offset="1" stop-color="#162C4E"/>
    </linearGradient>
    <linearGradient id="accentA" x1="210" y1="368" x2="520" y2="408" gradientUnits="userSpaceOnUse">
      <stop stop-color="#F97316"/>
      <stop offset="1" stop-color="#FB7185"/>
    </linearGradient>
    <linearGradient id="accentB" x1="1188" y1="588" x2="1296" y2="696" gradientUnits="userSpaceOnUse">
      <stop stop-color="#22D3EE"/>
      <stop offset="1" stop-color="#C084FC"/>
    </linearGradient>
  </defs>
</svg>
