<svg xmlns="http://www.w3.org/2000/svg" viewBox="0 0 320 220" role="img" aria-label="Chat character for WhatsApp">
  <defs>
    <linearGradient id="wbg" x1="0%" y1="0%" x2="100%" y2="100%">
      <stop offset="0%" stop-color="#b8f7d3" />
      <stop offset="100%" stop-color="#5ad9a1" />
    </linearGradient>
  </defs>
  <rect x="0" y="0" width="320" height="220" rx="24" fill="url(#wbg)" />
  <rect x="174" y="42" width="96" height="156" rx="16" fill="#111827" />
  <rect x="182" y="56" width="80" height="128" rx="10" fill="#f8fafc" />
  <rect x="192" y="74" width="58" height="10" rx="5" fill="#dcfce7" />
  <rect x="192" y="90" width="64" height="10" rx="5" fill="#bbf7d0" />
  <rect x="192" y="106" width="50" height="10" rx="5" fill="#86efac" />
  <circle cx="222" cy="138" r="18" fill="#25D366" />
  <path d="M216 140c2 2 4 3 6 4 1-1 2-2 3-3 1 1 2 1 3 2-1 3-3 5-6 5-3 0-7-3-10-7-3-4-4-8-3-11 1-2 2-3 4-4 1 1 2 2 3 3-1 1-2 2-2 3 0 2 1 5 2 8z" fill="#fff" />
  <circle cx="86" cy="52" r="18" fill="#facc9a" />
  <rect x="70" y="70" width="32" height="36" rx="12" fill="#14532d" />
  <rect x="54" y="104" width="64" height="48" rx="14" fill="#16a34a" />
  <rect x="44" y="148" width="84" height="10" rx="5" fill="#166534" />
  <circle cx="278" cy="38" r="20" fill="#25D366" />
  <path d="M270 40c2 2 4 3 6 4 1-1 2-2 3-3 1 1 2 1 3 2-1 3-3 5-6 5-3 0-7-3-10-7-3-4-4-8-3-11 1-2 2-3 4-4 1 1 2 2 3 3-1 1-2 2-2 3 0 2 1 5 2 8z" fill="#fff" />
</svg>
