<svg width="1600" height="1000" viewBox="0 0 1600 1000" fill="none" xmlns="http://www.w3.org/2000/svg">
  <rect width="1600" height="1000" rx="48" fill="#FAFAF9"/>
  <rect x="56" y="56" width="1488" height="888" rx="40" fill="url(#bg)"/>
  <rect x="124" y="170" width="624" height="660" rx="36" fill="#FFFFFF" stroke="#D6D3D1"/>
  <rect x="812" y="170" width="664" height="250" rx="36" fill="#FFFFFF" stroke="#D6D3D1"/>
  <rect x="812" y="468" width="664" height="362" rx="36" fill="#FFFFFF" stroke="#D6D3D1"/>
  <rect x="186" y="242" width="214" height="20" rx="10" fill="#111827"/>
  <rect x="186" y="292" width="346" height="14" rx="7" fill="#94A3B8"/>
  <rect x="186" y="360" width="500" height="160" rx="30" fill="#111827"/>
  <rect x="186" y="564" width="500" height="180" rx="30" fill="#FFF7ED"/>
  <rect x="846" y="236" width="276" height="20" rx="10" fill="#111827"/>
  <rect x="846" y="286" width="330" height="14" rx="7" fill="#94A3B8"/>
  <rect x="846" y="332" width="214" height="50" rx="18" fill="#F97316" fill-opacity="0.18"/>
  <path d="M870 704C962 680 1014 644 1092 616C1178 586 1244 534 1386 468" stroke="url(#growth)" stroke-width="18" stroke-linecap="round"/>
  <circle cx="1386" cy="468" r="18" fill="#22D3EE"/>
  <text x="124" y="118" fill="#111827" font-family="Arial, sans-serif" font-size="42" font-weight="700">Design for Business Growth</text>
  <text x="124" y="910" fill="#475569" font-family="Arial, sans-serif" font-size="28">Clarity, trust, conversion quality, and stronger explanation of offers</text>
  <defs>
    <linearGradient id="bg" x1="80" y1="80" x2="1520" y2="920" gradientUnits="userSpaceOnUse">
      <stop stop-color="#FFF7ED"/>
      <stop offset="1" stop-color="#F0FDF4"/>
    </linearGradient>
    <linearGradient id="growth" x1="870" y1="704" x2="1386" y2="468" gradientUnits="userSpaceOnUse">
      <stop stop-color="#F97316"/>
      <stop offset="0.5" stop-color="#A855F7"/>
      <stop offset="1" stop-color="#22D3EE"/>
    </linearGradient>
  </defs>
</svg>
