<svg width="1600" height="1000" viewBox="0 0 1600 1000" fill="none" xmlns="http://www.w3.org/2000/svg">
  <rect width="1600" height="1000" rx="48" fill="#F8FAFC"/>
  <rect x="56" y="56" width="1488" height="888" rx="40" fill="url(#bg)"/>
  <rect x="120" y="168" width="548" height="664" rx="36" fill="#FFFFFF" stroke="#CBD5E1"/>
  <circle cx="394" cy="404" r="154" fill="#0F172A"/>
  <path d="M352 334L484 404L352 474V334Z" fill="#F97316"/>
  <rect x="724" y="168" width="756" height="280" rx="36" fill="#FFFFFF" stroke="#CBD5E1"/>
  <rect x="792" y="244" width="260" height="20" rx="10" fill="#111827"/>
  <rect x="792" y="292" width="314" height="14" rx="7" fill="#94A3B8"/>
  <rect x="792" y="330" width="286" height="14" rx="7" fill="#94A3B8"/>
  <rect x="724" y="500" width="756" height="332" rx="36" fill="#FFFFFF" stroke="#CBD5E1"/>
  <path d="M812 706H1384" stroke="#E2E8F0" stroke-width="18" stroke-linecap="round"/>
  <path d="M812 706C920 706 970 640 1048 640C1128 640 1178 546 1250 546C1304 546 1346 498 1384 478" stroke="url(#line)" stroke-width="18" stroke-linecap="round"/>
  <circle cx="1384" cy="478" r="18" fill="#22D3EE"/>
  <rect x="176" y="642" width="436" height="108" rx="28" fill="#FFF7ED"/>
  <rect x="218" y="680" width="180" height="16" rx="8" fill="#111827"/>
  <rect x="218" y="714" width="250" height="12" rx="6" fill="#94A3B8"/>
  <text x="120" y="118" fill="#111827" font-family="Arial, sans-serif" font-size="42" font-weight="700">Explainer Growth Framework</text>
  <text x="120" y="910" fill="#475569" font-family="Arial, sans-serif" font-size="28">Positioning, product understanding, lead quality, and conversion momentum</text>
  <defs>
    <linearGradient id="bg" x1="80" y1="80" x2="1520" y2="920" gradientUnits="userSpaceOnUse">
      <stop stop-color="#EFF6FF"/>
      <stop offset="1" stop-color="#FFF7ED"/>
    </linearGradient>
    <linearGradient id="line" x1="812" y1="706" x2="1384" y2="478" gradientUnits="userSpaceOnUse">
      <stop stop-color="#A855F7"/>
      <stop offset="0.5" stop-color="#F97316"/>
      <stop offset="1" stop-color="#22D3EE"/>
    </linearGradient>
  </defs>
</svg>
