<svg width="1600" height="1000" viewBox="0 0 1600 1000" fill="none" xmlns="http://www.w3.org/2000/svg">
  <rect width="1600" height="1000" rx="48" fill="#F8FAFC"/>
  <rect x="56" y="56" width="1488" height="888" rx="40" fill="url(#bg)"/>
  <rect x="124" y="160" width="420" height="700" rx="34" fill="#FFFFFF" stroke="#CBD5E1"/>
  <rect x="590" y="160" width="420" height="700" rx="34" fill="#FFFFFF" stroke="#CBD5E1"/>
  <rect x="1056" y="160" width="420" height="700" rx="34" fill="#FFFFFF" stroke="#CBD5E1"/>
  <rect x="174" y="236" width="114" height="18" rx="9" fill="#0F172A"/>
  <rect x="640" y="236" width="126" height="18" rx="9" fill="#0F172A"/>
  <rect x="1106" y="236" width="108" height="18" rx="9" fill="#0F172A"/>
  <rect x="174" y="314" width="160" height="72" rx="24" fill="#F97316" fill-opacity="0.12"/>
  <rect x="640" y="314" width="160" height="72" rx="24" fill="#22D3EE" fill-opacity="0.12"/>
  <rect x="1106" y="314" width="160" height="72" rx="24" fill="#A855F7" fill-opacity="0.12"/>
  <rect x="174" y="448" width="320" height="18" rx="9" fill="#111827"/>
  <rect x="174" y="490" width="262" height="12" rx="6" fill="#94A3B8"/>
  <rect x="174" y="548" width="320" height="18" rx="9" fill="#111827"/>
  <rect x="174" y="590" width="222" height="12" rx="6" fill="#94A3B8"/>
  <rect x="174" y="648" width="320" height="18" rx="9" fill="#111827"/>
  <rect x="174" y="690" width="258" height="12" rx="6" fill="#94A3B8"/>
  <rect x="640" y="448" width="320" height="18" rx="9" fill="#111827"/>
  <rect x="640" y="490" width="262" height="12" rx="6" fill="#94A3B8"/>
  <rect x="640" y="548" width="320" height="18" rx="9" fill="#111827"/>
  <rect x="640" y="590" width="222" height="12" rx="6" fill="#94A3B8"/>
  <rect x="640" y="648" width="320" height="18" rx="9" fill="#111827"/>
  <rect x="640" y="690" width="258" height="12" rx="6" fill="#94A3B8"/>
  <rect x="1106" y="448" width="320" height="18" rx="9" fill="#111827"/>
  <rect x="1106" y="490" width="262" height="12" rx="6" fill="#94A3B8"/>
  <rect x="1106" y="548" width="320" height="18" rx="9" fill="#111827"/>
  <rect x="1106" y="590" width="222" height="12" rx="6" fill="#94A3B8"/>
  <rect x="1106" y="648" width="320" height="18" rx="9" fill="#111827"/>
  <rect x="1106" y="690" width="258" height="12" rx="6" fill="#94A3B8"/>
  <text x="124" y="118" fill="#111827" font-family="Arial, sans-serif" font-size="42" font-weight="700">Pricing Architecture</text>
  <text x="124" y="910" fill="#475569" font-family="Arial, sans-serif" font-size="28">Scope, variants, strategic work, and revision structure</text>
  <defs>
    <linearGradient id="bg" x1="80" y1="80" x2="1520" y2="920" gradientUnits="userSpaceOnUse">
      <stop stop-color="#F8FAFC"/>
      <stop offset="1" stop-color="#FFF7ED"/>
    </linearGradient>
  </defs>
</svg>
