<svg width="1600" height="1000" viewBox="0 0 1600 1000" fill="none" xmlns="http://www.w3.org/2000/svg">
  <rect width="1600" height="1000" rx="48" fill="#F8FAFC"/>
  <rect x="56" y="56" width="1488" height="888" rx="40" fill="url(#bg)"/>
  <rect x="128" y="160" width="506" height="700" rx="36" fill="#FFFFFF" stroke="#CBD5E1"/>
  <rect x="694" y="160" width="778" height="328" rx="36" fill="#FFFFFF" stroke="#CBD5E1"/>
  <rect x="694" y="532" width="778" height="328" rx="36" fill="#FFFFFF" stroke="#CBD5E1"/>
  <rect x="192" y="236" width="154" height="18" rx="9" fill="#111827"/>
  <rect x="192" y="284" width="246" height="14" rx="7" fill="#94A3B8"/>
  <rect x="192" y="356" width="378" height="88" rx="28" fill="#0F172A"/>
  <rect x="192" y="478" width="378" height="88" rx="28" fill="#0F172A"/>
  <rect x="192" y="600" width="378" height="88" rx="28" fill="#0F172A"/>
  <rect x="758" y="236" width="222" height="20" rx="10" fill="#111827"/>
  <rect x="758" y="284" width="314" height="14" rx="7" fill="#94A3B8"/>
  <rect x="758" y="346" width="584" height="44" rx="22" fill="#E2E8F0"/>
  <rect x="758" y="346" width="364" height="44" rx="22" fill="#22D3EE"/>
  <rect x="758" y="608" width="584" height="44" rx="22" fill="#E2E8F0"/>
  <rect x="758" y="608" width="422" height="44" rx="22" fill="#F97316"/>
  <circle cx="1308" cy="368" r="28" fill="#F8FAFC"/>
  <path d="M1298 354L1320 368L1298 382V354Z" fill="#0F172A"/>
  <text x="128" y="118" fill="#111827" font-family="Arial, sans-serif" font-size="42" font-weight="700">Tutorial Playbook</text>
  <text x="128" y="910" fill="#475569" font-family="Arial, sans-serif" font-size="28">Activation, onboarding, support reduction, and modular learning flows</text>
  <defs>
    <linearGradient id="bg" x1="80" y1="80" x2="1520" y2="920" gradientUnits="userSpaceOnUse">
      <stop stop-color="#ECFEFF"/>
      <stop offset="1" stop-color="#FFF7ED"/>
    </linearGradient>
  </defs>
</svg>
